<mxfile host="65bd71144e">
    <diagram id="rp6KxP6fxzb16cTdrMA3" name="Page-1">
        <mxGraphModel dx="288" dy="203" grid="1" gridSize="10" guides="1" tooltips="1" connect="1" arrows="1" fold="1" page="1" pageScale="1" pageWidth="827" pageHeight="1169" math="0" shadow="0">
            <root>
                <mxCell id="0"/>
                <mxCell id="1" parent="0"/>
                <mxCell id="2" value="sequenceDiagram&#10;participant Pawn&#10;participant Board&#10;loop knows&#10;  Pawn-&gt;&gt;Pawn: color&#10;  Pawn-&gt;&gt;Pawn: position&#10;end&#10;Pawn-&gt;&gt;Board: is on&#10;Board-&gt;&gt;Pawn: saves all" style="shadow=0;dashed=0;align=left;strokeWidth=1;shape=mxgraph.mermaid.abstract.mermaid;labelBackgroundColor=#ffffff;noLabel=1;theme=default;" vertex="1" parent="1">
                    <mxGeometry x="350" y="220" width="400" height="300" as="geometry"/>
                </mxCell>
            </root>
        </mxGraphModel>
    </diagram>
</mxfile>